<svg id="visual" viewBox="0 0 900 600" width="900" height="600" xmlns="http://www.w3.org/2000/svg" xmlns:xlink="http://www.w3.org/1999/xlink" version="1.1"><path d="M0 49L21.5 49C43 49 86 49 128.8 52C171.7 55 214.3 61 257.2 58C300 55 343 43 385.8 40C428.7 37 471.3 43 514.2 47C557 51 600 53 642.8 51C685.7 49 728.3 43 771.2 42C814 41 857 45 878.5 47L900 49L900 0L878.5 0C857 0 814 0 771.2 0C728.3 0 685.7 0 642.8 0C600 0 557 0 514.2 0C471.3 0 428.7 0 385.8 0C343 0 300 0 257.2 0C214.3 0 171.7 0 128.8 0C86 0 43 0 21.5 0L0 0Z" fill="#45138d"></path><path d="M0 85L21.5 88C43 91 86 97 128.8 101C171.7 105 214.3 107 257.2 105C300 103 343 97 385.8 94C428.7 91 471.3 91 514.2 94C557 97 600 103 642.8 100C685.7 97 728.3 85 771.2 83C814 81 857 89 878.5 93L900 97L900 47L878.5 45C857 43 814 39 771.2 40C728.3 41 685.7 47 642.8 49C600 51 557 49 514.2 45C471.3 41 428.7 35 385.8 38C343 41 300 53 257.2 56C214.3 59 171.7 53 128.8 50C86 47 43 47 21.5 47L0 47Z" fill="#3b0c7e"></path><path d="M0 127L21.5 135C43 143 86 159 128.8 163C171.7 167 214.3 159 257.2 149C300 139 343 127 385.8 132C428.7 137 471.3 159 514.2 170C557 181 600 181 642.8 181C685.7 181 728.3 181 771.2 178C814 175 857 169 878.5 166L900 163L900 95L878.5 91C857 87 814 79 771.2 81C728.3 83 685.7 95 642.8 98C600 101 557 95 514.2 92C471.3 89 428.7 89 385.8 92C343 95 300 101 257.2 103C214.3 105 171.7 103 128.8 99C86 95 43 89 21.5 86L0 83Z" fill="#32066f"></path><path d="M0 211L21.5 222C43 233 86 255 128.8 258C171.7 261 214.3 245 257.2 241C300 237 343 245 385.8 251C428.7 257 471.3 261 514.2 270C557 279 600 293 642.8 310C685.7 327 728.3 347 771.2 345C814 343 857 319 878.5 307L900 295L900 161L878.5 164C857 167 814 173 771.2 176C728.3 179 685.7 179 642.8 179C600 179 557 179 514.2 168C471.3 157 428.7 135 385.8 130C343 125 300 137 257.2 147C214.3 157 171.7 165 128.8 161C86 157 43 141 21.5 133L0 125Z" fill="#290261"></path><path d="M0 427L21.5 435C43 443 86 459 128.8 456C171.7 453 214.3 431 257.2 417C300 403 343 397 385.8 404C428.7 411 471.3 431 514.2 434C557 437 600 423 642.8 424C685.7 425 728.3 441 771.2 441C814 441 857 425 878.5 417L900 409L900 293L878.5 305C857 317 814 341 771.2 343C728.3 345 685.7 325 642.8 308C600 291 557 277 514.2 268C471.3 259 428.7 255 385.8 249C343 243 300 235 257.2 239C214.3 243 171.7 259 128.8 256C86 253 43 231 21.5 220L0 209Z" fill="#220157"></path><path d="M0 499L21.5 499C43 499 86 499 128.8 495C171.7 491 214.3 483 257.2 469C300 455 343 435 385.8 435C428.7 435 471.3 455 514.2 464C557 473 600 471 642.8 474C685.7 477 728.3 485 771.2 490C814 495 857 497 878.5 498L900 499L900 407L878.5 415C857 423 814 439 771.2 439C728.3 439 685.7 423 642.8 422C600 421 557 435 514.2 432C471.3 429 428.7 409 385.8 402C343 395 300 401 257.2 415C214.3 429 171.7 451 128.8 454C86 457 43 441 21.5 433L0 425Z" fill="#1f0450"></path><path d="M0 547L21.5 547C43 547 86 547 128.8 550C171.7 553 214.3 559 257.2 558C300 557 343 549 385.8 551C428.7 553 471.3 565 514.2 572C557 579 600 581 642.8 575C685.7 569 728.3 555 771.2 555C814 555 857 569 878.5 576L900 583L900 497L878.5 496C857 495 814 493 771.2 488C728.3 483 685.7 475 642.8 472C600 469 557 471 514.2 462C471.3 453 428.7 433 385.8 433C343 433 300 453 257.2 467C214.3 481 171.7 489 128.8 493C86 497 43 497 21.5 497L0 497Z" fill="#1c064a"></path><path d="M0 601L21.5 601C43 601 86 601 128.8 601C171.7 601 214.3 601 257.2 601C300 601 343 601 385.8 601C428.7 601 471.3 601 514.2 601C557 601 600 601 642.8 601C685.7 601 728.3 601 771.2 601C814 601 857 601 878.5 601L900 601L900 581L878.5 574C857 567 814 553 771.2 553C728.3 553 685.7 567 642.8 573C600 579 557 577 514.2 570C471.3 563 428.7 551 385.8 549C343 547 300 555 257.2 556C214.3 557 171.7 551 128.8 548C86 545 43 545 21.5 545L0 545Z" fill="#190743"></path></svg>